<?xml version="1.0"?>

<!DOCTYPE svg PUBLIC '-//W3C//DTD SVG 1.0//EN' 'http://www.w3.org/TR/2001/REC-SVG-20010904/DTD/svg10.dtd'>
<svg fill-opacity="1" xmlns:xlink="http://www.w3.org/1999/xlink" color-rendering="auto" color-interpolation="auto" stroke="black" text-rendering="auto" stroke-linecap="square" stroke-miterlimit="10" stroke-opacity="1" shape-rendering="auto" fill="black" stroke-dasharray="none" font-weight="normal" stroke-width="1" xmlns="http://www.w3.org/2000/svg" stroke-linejoin="miter" stroke-dashoffset="0" image-rendering="auto">
    <g>
      <path d="M274.2188 293.625 Q274.2188 295.7344 273.2344 299.3906 Q266.3438 294.75 259.4531 290.1094 Q248.9062 283.2188 245.9531 283.2188 Q243.1406 283.2188 234.1406 291.375 Q231.3281 293.9062 228.4453 300.4453 Q225.5625 306.9844 225.1406 311.0625 Q237.6562 320.4844 252.5625 331.1719 Q247.9219 335.25 240.6094 335.25 Q232.1719 335.25 226.2656 333.4219 Q212.2031 329.2031 205.7344 316.8281 Q205.3125 314.7188 204.1875 310.7812 Q202.5 304.7344 200.8125 298.7578 Q199.125 292.7812 194.3438 287.2969 L130.3594 214.4531 Q115.875 198 86.2031 165.5156 Q81.9844 161.1562 69.6094 157.0781 Q64.8281 155.5312 60.3281 155.5312 Q58.2188 155.5312 53.9297 156.4453 Q49.6406 157.3594 47.5312 157.3594 Q44.1562 157.3594 35.8594 153.8438 Q33.8906 152.4375 29.9531 149.7656 Q20.1094 143.4375 16.3125 137.1094 Q14.9062 134.8594 13.2188 126.5625 Q11.5312 118.2656 11.5312 115.0312 Q11.5312 114.6094 12.9375 112.5 Q18.2812 115.5938 32.9062 124.875 Q35.7188 126.8438 41.625 130.3594 Q44.4375 131.7656 47.5312 131.7656 Q52.1719 131.7656 60.6094 123.2578 Q69.0469 114.75 69.0469 110.1094 L69.0469 98.2969 L38.8125 79.875 L40.2188 75.0938 Q45.8438 72.4219 51.1875 72.4219 Q70.0312 72.4219 78.3281 79.0312 Q91.9688 89.7188 93.6562 98.1562 Q93.5156 104.4844 94.7812 117 Q95.0625 118.125 97.4531 121.9922 Q99.8438 125.8594 114.4688 142.4531 Q146.8125 179.7188 212.4844 253.4062 Q215.2969 256.5 220.7812 259.1719 Q226.9688 262.125 235.5469 262.6875 Q246.6562 263.25 250.1719 264.0938 Q259.1719 266.3438 266.6953 275.4141 Q274.2188 284.4844 274.2188 293.625 Z" stroke="none" />
    </g>
</svg>
